# xmcd
# Copyright (C) 1995-1998 Ti Kan
#
# Track frame offsets:
#       150
#       17775
#       36450
#       60600
#       77250
#       99225
#       112800
#       129750
#       142125
#       164400
#       184650
#       200025
#       221550
#
# Disc length: 3495 seconds
#
# Revision: 2
# Processed by: cddbd v1.4PL0 Copyright (c) Steve Scherf et al.
# Submitted via: CD-Transfer v1.0
#
DISCID=ae0da50d
DTITLE=Ayersrock - Whiskey On The Rock`s
DYEAR=2002
DGENRE=
TTITLE0=Old Weakness
TTITLE1=Gurke
TTITLE2=For You
TTITLE3=Misterious Girl
TTITLE4=Sweet Home Chicago
TTITLE5=Hart To Handel
TTITLE6=Rock`n`roll Love Song
TTITLE7=Son Of A Preacher Man
TTITLE8=Shot Gun Blues
TTITLE9=Dead Flowers
TTITLE10=Sometimes
TTITLE11=Old Time Rock`n`roll
TTITLE12=Quo Medley
EXTD=
EXTT0=
EXTT1=
EXTT2=
EXTT3=
EXTT4=
EXTT5=
EXTT6=
EXTT7=
EXTT8=
EXTT9=
EXTT10=
EXTT11=
EXTT12=
PLAYORDER=
